<?xml version="1.0" standalone="no"?>
<!DOCTYPE svg PUBLIC "-//W3C//DTD SVG 20010904//EN"
 "http://www.w3.org/TR/2001/REC-SVG-20010904/DTD/svg10.dtd">
<svg version="1.0" xmlns="http://www.w3.org/2000/svg"
 width="455.000000pt" height="549.000000pt" viewBox="0 0 455.000000 549.000000"
 preserveAspectRatio="xMidYMid meet">

<g transform="translate(0.000000,549.000000) scale(0.100000,-0.100000)"
fill="#000000" stroke="none">
<path d="M3143 5170 c-89 -54 -83 -199 10 -243 126 -60 251 63 191 189 -33 69
-133 96 -201 54z m138 -13 c50 -33 73 -85 59 -136 -21 -80 -117 -118 -191 -74
-81 48 -72 181 14 218 46 20 79 18 118 -8z"/>
<path d="M3172 5053 c0 -38 3 -53 5 -35 3 23 9 32 23 32 10 0 30 -15 44 -32
27 -35 36 -27 11 9 -13 18 -13 22 0 33 20 16 19 46 -1 54 -9 3 -31 6 -50 6
l-34 0 2 -67z m82 41 c9 -24 -2 -34 -40 -34 -26 0 -34 4 -34 18 0 25 9 32 41
32 15 0 29 -7 33 -16z"/>
<path d="M1354 4336 c-13 -51 -4 -60 75 -73 48 -8 78 -19 87 -30 17 -24 26
-116 22 -228 l-3 -90 -125 0 -125 0 -3 -32 c-3 -32 -2 -32 48 -39 28 -4 61
-15 74 -25 12 -10 48 -63 80 -118 l57 -101 -3 -638 c-3 -586 -4 -640 -20 -664
-19 -29 -70 -48 -130 -48 l-38 0 0 -44 0 -43 218 -7 c197 -6 315 -3 350 9 6 2
12 20 12 39 l0 34 -62 7 c-71 8 -134 32 -160 62 -10 11 -22 43 -28 73 -13 67
-14 947 -1 954 5 4 31 -33 57 -81 26 -49 90 -162 142 -253 53 -91 162 -282
244 -425 81 -143 153 -260 159 -260 11 0 51 66 239 390 48 83 111 191 140 240
29 50 92 157 139 239 48 82 92 151 99 154 9 3 12 -96 12 -435 0 -463 -3 -490
-49 -580 -26 -52 -43 -61 -134 -77 -72 -11 -72 -12 -75 -45 -2 -20 2 -37 9
-42 20 -12 553 2 561 15 14 20 8 55 -9 59 -10 3 -39 8 -66 12 -66 9 -98 39
-108 101 -4 27 -8 316 -8 642 l-1 592 24 38 c13 21 40 69 59 108 43 86 62 103
129 118 47 10 53 14 53 36 l0 25 -130 5 -130 5 -3 95 c-7 207 10 243 121 254
l67 8 0 44 0 44 -168 0 -167 0 -34 -62 c-19 -35 -63 -115 -99 -178 -35 -63
-86 -153 -112 -200 -26 -47 -96 -170 -156 -275 -59 -104 -124 -221 -145 -260
-21 -38 -44 -71 -51 -73 -8 -1 -100 151 -233 384 -260 455 -235 411 -314 552
l-63 112 -159 0 -159 0 -6 -24z m1556 -320 l0 -93 -60 -7 c-50 -6 -60 -10 -60
-26 0 -40 11 -50 54 -50 23 0 47 -5 54 -12 8 -8 12 -51 12 -127 l0 -115 -94
-160 c-51 -89 -105 -181 -119 -206 -102 -185 -401 -690 -408 -690 -11 0 3 -24
-270 453 -22 37 -57 97 -78 135 -22 37 -91 159 -155 272 l-116 205 2 115 3
115 44 11 c32 7 47 17 53 34 11 31 2 38 -52 42 l-45 3 -3 98 c-2 77 0 98 10
95 7 -3 48 -67 91 -144 112 -198 164 -289 257 -454 45 -80 118 -209 162 -287
44 -79 83 -145 88 -148 5 -3 25 25 46 62 20 38 69 124 109 193 110 189 355
621 355 624 0 5 80 138 92 153 20 25 28 0 28 -91z"/>
<path d="M98 763 c5 -10 36 -138 68 -285 32 -148 61 -268 64 -268 4 0 15 39
25 88 19 94 28 150 19 117 -9 -31 -21 -39 -27 -19 -14 48 -71 332 -71 357 -1
25 -4 27 -44 27 -37 0 -42 -2 -34 -17z"/>
<path d="M313 769 c10 -6 17 -23 18 -42 0 -31 0 -31 10 -7 6 13 17 33 26 42
15 17 14 18 -28 18 -35 -1 -40 -3 -26 -11z"/>
<path d="M464 766 c-11 -29 1 -51 26 -51 19 0 26 6 28 24 5 35 -42 58 -54 27z"/>
<path d="M1652 771 c-21 -13 -11 -55 14 -59 30 -4 48 21 34 47 -11 22 -27 26
-48 12z"/>
<path d="M2268 509 c2 -194 -1 -275 -9 -285 -9 -11 -6 -14 17 -14 22 0 25 3
16 12 -13 13 -18 509 -5 522 4 4 22 -78 39 -181 70 -411 65 -397 94 -224 9 47
8 71 0 91 -7 16 -24 100 -38 187 l-27 158 -45 3 -45 3 3 -272z"/>
<path d="M2494 749 c3 -17 6 -146 6 -285 l0 -254 38 0 37 0 0 285 0 285 -44 0
c-43 0 -43 0 -37 -31z"/>
<path d="M909 648 c-2 -202 4 -414 12 -430 10 -19 45 -24 69 -8 13 8 12 10 -2
10 -17 0 -18 18 -18 240 l0 240 -30 0 c-29 0 -30 -1 -31 -52z"/>
<path d="M3329 648 c-3 -274 3 -414 18 -430 20 -22 43 -23 69 -3 18 14 18 14
-3 8 l-23 -5 0 241 0 241 -30 0 c-29 0 -30 -1 -31 -52z"/>
<path d="M311 614 c0 -11 3 -14 6 -6 3 7 2 16 -1 19 -3 4 -6 -2 -5 -13z"/>
<path d="M679 585 c-42 -23 -63 -78 -63 -170 0 -109 9 -149 45 -185 22 -22 39
-30 62 -29 22 1 25 3 11 6 -48 9 -59 37 -63 164 -4 147 2 184 35 205 21 14 29
15 52 5 25 -12 26 -14 9 -26 -20 -14 -20 -56 -1 -62 15 -5 44 24 44 43 0 24
-50 64 -79 64 -14 -1 -38 -7 -52 -15z"/>
<path d="M1138 585 c-85 -47 -85 -317 1 -368 42 -25 54 -21 26 8 -24 23 -25
28 -25 172 0 118 3 153 16 171 18 27 45 28 67 4 14 -16 17 -43 17 -172 0 -144
-1 -155 -22 -177 -16 -17 -18 -23 -7 -23 107 0 131 332 29 385 -36 19 -67 18
-102 0z"/>
<path d="M1506 588 c5 -7 8 -24 8 -38 1 -20 6 -25 26 -25 18 0 26 6 28 23 2
13 -2 30 -8 38 -15 18 -65 20 -54 2z"/>
<path d="M1888 585 l32 -14 0 -164 c0 -160 1 -164 24 -186 18 -17 30 -21 47
-16 20 7 20 8 6 17 -15 8 -17 30 -17 159 l0 151 -34 34 c-23 23 -43 34 -62 34
l-29 -1 33 -14z"/>
<path d="M2723 573 c-38 -33 -53 -83 -53 -173 0 -90 15 -140 52 -172 36 -32
47 -30 24 4 -13 18 -16 50 -16 160 0 75 4 148 9 161 18 46 69 46 89 1 7 -15
12 -81 12 -165 0 -135 -1 -141 -25 -164 -13 -14 -19 -25 -14 -25 24 0 50 23
71 63 20 36 23 57 23 142 -1 109 -13 149 -59 179 -37 24 -77 20 -113 -11z"/>
<path d="M3099 580 l-24 -21 23 13 c20 11 25 11 38 -7 12 -16 14 -52 12 -188
l-3 -167 35 0 35 0 -5 174 c-4 153 -7 177 -24 195 -24 27 -57 27 -87 1z"/>
<path d="M3558 585 c-40 -22 -63 -93 -62 -190 1 -90 19 -142 60 -174 29 -23
74 -27 105 -11 55 30 85 189 55 293 -13 45 -24 62 -49 77 -38 23 -72 25 -109
5z m88 -16 c17 -19 19 -37 18 -168 0 -157 -9 -191 -47 -191 -49 0 -52 9 -55
179 -3 150 -2 161 17 180 27 27 43 26 67 0z"/>
<path d="M4155 593 c40 -10 47 -24 45 -97 -4 -137 0 -207 10 -201 6 3 10 2 10
-4 0 -6 8 -7 17 -4 11 4 12 8 5 11 -9 3 -8 9 3 25 18 25 21 197 5 228 -13 24
-62 49 -92 48 -20 -1 -21 -2 -3 -6z"/>
<path d="M460 400 l0 -190 30 0 30 0 0 190 0 190 -30 0 -30 0 0 -190z"/>
<path d="M1398 400 l3 -190 32 0 32 0 -2 178 c-1 97 -2 183 -2 190 -1 7 -15
12 -33 12 l-33 0 3 -190z"/>
<path d="M1640 400 l0 -190 33 0 32 0 -3 190 -3 190 -29 0 -30 0 0 -190z"/>
<path d="M1812 565 c-27 -34 -18 -67 17 -63 31 4 40 34 15 52 -9 7 -14 18 -10
24 13 22 -2 12 -22 -13z"/>
<path d="M2990 400 l0 -190 33 0 32 0 -3 135 c-2 74 1 149 6 167 13 49 -1 78
-38 78 l-30 0 0 -190z"/>
<path d="M3798 573 c12 -22 89 -289 97 -335 7 -39 -34 -189 -53 -196 -7 -2
-12 5 -12 17 0 28 -27 38 -47 19 -32 -33 24 -76 64 -50 17 11 30 48 73 207 21
77 46 167 55 200 9 33 21 77 26 98 6 24 18 41 32 47 17 7 9 9 -33 9 -43 0 -50
-2 -32 -9 28 -12 28 -19 -3 -134 -14 -52 -25 -97 -25 -100 0 -3 -4 -6 -8 -6
-7 0 -30 73 -57 187 -11 46 -10 53 4 56 9 3 -8 5 -37 6 -47 1 -52 -1 -44 -16z"/>
<path d="M4095 565 c-29 -28 -31 -38 -9 -59 12 -12 20 -13 35 -6 20 11 27 50
8 50 -6 0 -9 9 -6 20 7 26 1 25 -28 -5z"/>
<path d="M301 564 c0 -11 3 -14 6 -6 3 7 2 16 -1 19 -3 4 -6 -2 -5 -13z"/>
<path d="M291 504 c0 -11 3 -14 6 -6 3 7 2 16 -1 19 -3 4 -6 -2 -5 -13z"/>
<path d="M282 460 c0 -14 2 -19 5 -12 2 6 2 18 0 25 -3 6 -5 1 -5 -13z"/>
<path d="M1848 385 c-49 -37 -69 -76 -61 -119 6 -30 46 -66 74 -66 26 0 32 17
9 23 -18 4 -20 14 -20 75 0 62 3 72 26 96 37 36 26 33 -28 -9z"/>
<path d="M4107 369 c-34 -28 -37 -35 -37 -80 0 -68 34 -102 85 -83 14 6 13 8
-5 21 -16 12 -20 25 -20 77 0 34 5 67 12 74 26 26 -1 19 -35 -9z"/>
<path d="M4225 269 c-12 -6 -27 -20 -35 -32 -12 -20 -12 -21 3 -8 14 11 18 11
23 -3 7 -17 34 -22 34 -6 0 5 -6 15 -14 22 -11 11 -11 15 3 25 19 15 14 15
-14 2z"/>
<path d="M791 261 c-1 -8 -9 -24 -18 -35 -16 -20 -16 -20 6 0 13 12 21 28 18
35 -4 11 -6 11 -6 0z"/>
</g>
</svg>
